Coordinates
version=1
nRows=14
nColumns=40
inDegrees=yes

Units are S.I. units (second, meters, Newtons, ...)
Angles are in degrees.

endheader
time	pelvis_tilt	pelvis_list	pelvis_rotation	pelvis_tx	pelvis_ty	pelvis_tz	hip_flexion_r	hip_adduction_r	hip_rotation_r	knee_angle_r	knee_angle_r_beta	ankle_angle_r	subtalar_angle_r	mtp_angle_r	hip_flexion_l	hip_adduction_l	hip_rotation_l	knee_angle_l	knee_angle_l_beta	ankle_angle_l	subtalar_angle_l	mtp_angle_l	lumbar_extension	lumbar_bending	lumbar_rotation	arm_flex_r	arm_add_r	arm_rot_r	elbow_flex_r	pro_sup_r	wrist_flex_r	wrist_dev_r	arm_flex_l	arm_add_l	arm_rot_l	elbow_flex_l	pro_sup_l	wrist_flex_l	wrist_dev_l
     38.39000000	     -1.89544890	     -3.85175294	      0.93468983	      0.93739691	      0.92078059	      0.42219827	     17.94076279	     -9.54444770	     -9.08179570	     63.14935534	     63.14935534	      3.71625158	    -19.44928081	     16.71407061	     16.58607959	     -0.95664633	     -1.87882818	     30.55583928	     30.55583928	     18.85097540	    -17.74956425	      8.22371058	    -10.03430558	      5.10903496	      3.42490054	     23.76799168	    -13.01382898	    -16.92805833	     31.05453193	     45.79880479	      0.00000000	      0.00000000	     14.17641427	    -13.81814315	     14.57767481	     34.99290035	     45.39602718	      0.00000000	      0.00000000
     38.40892857	     -1.65933662	     -3.96617995	      0.32420882	      0.93624233	      0.91941307	      0.42014050	     19.13712003	     -9.26332647	     -8.54879040	     64.00541646	     64.00541646	      4.93977027	    -19.46083125	     16.75744203	     16.31884882	     -1.02470058	     -2.27616017	     31.31990218	     31.31990218	     19.61268160	    -17.95614109	      8.30956680	    -10.39228607	      5.60223043	      3.35903788	     20.89400352	    -12.79891544	    -17.04397490	     29.54338165	     45.85970629	      0.00000000	      0.00000000	     15.97592683	    -14.19403465	     14.20507821	     36.42124032	     45.48090559	      0.00000000	      0.00000000
     38.42785714	     -1.44159131	     -4.07193190	     -0.29973439	      0.93502961	      0.91812136	      0.41812463	     20.35867138	     -8.93445516	     -8.02485713	     64.67593483	     64.67593483	      6.13946556	    -19.46657638	     16.84436257	     16.02869250	     -1.08105101	     -2.70292310	     32.02096154	     32.02096154	     20.35073033	    -18.13560994	      8.41475757	    -10.77617520	      6.09683470	      3.21284100	     18.05125023	    -12.62826706	    -17.09509205	     28.00066102	     45.91606316	      0.00000000	      0.00000000	     17.84034411	    -14.63675585	     13.82163559	     37.73569558	     45.56497939	      0.00000000	      0.00000000
     38.44678571	     -1.22617296	     -4.19733340	     -0.96123052	      0.93380979	      0.91715080	      0.41628024	     21.51271370	     -8.52334001	     -7.54460798	     64.99111784	     64.99111784	      7.29002769	    -19.46746843	     17.07296442	     15.63052553	     -1.16642442	     -3.18297816	     32.52970343	     32.52970343	     21.08031778	    -18.24729447	      8.66315056	    -11.18159211	      6.59440578	      3.14832811	     15.21453743	    -12.53258152	    -17.13982076	     26.38470299	     45.97787150	      0.00000000	      0.00000000	     19.73125219	    -15.08350624	     13.39207003	     39.09444563	     45.65515730	      0.00000000	      0.00000000
     38.46571429	     -1.07512587	     -4.30463349	     -1.63298534	      0.93255586	      0.91652292	      0.41467982	     22.65601119	     -8.07067381	     -7.11318445	     64.89668044	     64.89668044	      8.37228587	    -19.45103975	     17.38982325	     15.19071489	     -1.23106064	     -3.65218333	     32.82815404	     32.82815404	     21.77709918	    -18.29576314	      9.06608723	    -11.57186837	      7.06012883	      3.02155551	     12.51133048	    -12.41040406	    -17.21016512	     24.81834017	     46.04684145	      0.00000000	      0.00000000	     21.55034764	    -15.59362759	     12.88408025	     40.43848631	     45.75498786	      0.00000000	      0.00000000
     38.48464286	     -1.03032156	     -4.40522030	     -2.35535198	      0.93121804	      0.91628040	      0.41345126	     23.79395124	     -7.55624702	     -6.73582512	     64.28267925	     64.28267925	      9.21243177	    -19.42854276	     17.40738599	     14.74183709	     -1.32364543	     -4.22160353	     32.86771656	     32.86771656	     22.26120305	    -18.32886656	      9.32991267	    -11.87192624	      7.49584218	      2.88376334	      9.90719475	    -12.32598616	    -17.29553923	     23.47056238	     46.10749760	      0.00000000	      0.00000000	     23.27782451	    -16.16811197	     12.32445801	     41.67269241	     45.85287837	      0.00000000	      0.00000000
     38.50357143	     -1.05650515	     -4.51161412	     -3.10598408	      0.92984789	      0.91651287	      0.41258508	     24.85422847	     -6.98873259	     -6.45229270	     63.10584042	     63.10584042	      9.85073242	    -19.38771161	     17.24045586	     14.22049374	     -1.43813820	     -4.84235548	     32.61324742	     32.61324742	     22.59182231	    -18.33101137	      9.52305515	    -12.11186622	      7.88935047	      2.73852401	      7.39679279	    -12.25961331	    -17.39851816	     22.33095698	     46.16032940	      0.00000000	      0.00000000	     24.92963547	    -16.74935660	     11.71885077	     42.89646758	     45.95045463	      0.00000000	      0.00000000
     38.52250000	     -1.16266974	     -4.61929342	     -3.88921492	      0.92841702	      0.91720612	      0.41218143	     25.81135404	     -6.33975094	     -6.20848763	     61.33123330	     61.33123330	     10.28318231	    -19.32368572	     16.77722888	     13.64999941	     -1.58737652	     -5.53163567	     32.08835911	     32.08835911	     22.75519519	    -18.27778996	      9.70514285	    -12.31883801	      8.22416694	      2.72486717	      4.89864941	    -12.23656904	    -17.57025879	     21.41807363	     46.21587382	      0.00000000	      0.00000000	     26.50236223	    -17.29914075	     10.91547709	     44.36957067	     46.06922534	      0.00000000	      0.00000000
     38.54142857	     -1.40400540	     -4.73253846	     -4.65635686	      0.92694025	      0.91828516	      0.41208247	     26.69231172	     -5.66294788	     -6.10496939	     58.93089207	     58.93089207	     10.46399582	    -19.22734361	     16.30751297	     13.10670580	     -1.75328558	     -6.24588081	     31.31466106	     31.31466106	     22.79150318	    -18.19393348	      9.79532850	    -12.32381675	      8.58036299	      2.36673359	      2.73534854	    -12.12389870	    -17.72339574	     20.82742111	     46.25008529	      0.00000000	      0.00000000	     27.78468776	    -18.04982188	     10.24499575	     45.41414088	     46.16116268	      0.00000000	      0.00000000
     38.56035714	     -1.70111062	     -4.81079449	     -5.45085981	      0.92535415	      0.91952209	      0.41235829	     27.36645730	     -5.01487150	     -6.04613898	     55.87765156	     55.87765156	      9.52398998	    -19.06782554	     12.55480835	     12.54717792	     -1.91576769	     -7.00037217	     30.37051920	     30.37051920	     22.43854060	    -18.05759553	      9.18537023	    -12.41022433	      8.84616019	      2.03817224	      0.13831503	    -11.95822589	    -18.47016044	     21.67785557	     46.33183502	      0.00000000	      0.00000000	     28.57982877	    -18.71650367	      7.88346087	     48.16693796	     46.44363939	      0.00000000	      0.00000000
     38.57928571	     -2.18200182	     -4.89551564	     -6.21069594	      0.92364018	      0.92078547	      0.41308670	     28.15637208	     -4.21974397	     -5.88216265	     52.58687792	     52.58687792	      9.50137760	    -18.65869891	     12.50893354	     12.15634051	     -2.11403583	     -7.71810381	     29.35983892	     29.35983892	     22.33154612	    -17.80917715	      9.35269981	    -12.16165758	      9.06500565	      1.54453502	     -1.71298157	    -11.83408292	    -18.54927910	     21.09188133	     46.35350829	      0.00000000	      0.00000000	     29.93669156	    -19.67766616	      7.42206069	     48.80652226	     46.50564828	      0.00000000	      0.00000000
     38.59821429	     -2.38645757	     -4.98467870	     -6.96920399	      0.92221941	      0.92258493	      0.41399219	     28.03725373	     -3.56987967	     -6.00939302	     48.17424187	     48.17424187	      7.21769412	    -18.34726257	      5.73125535	     11.26572936	     -2.29660132	     -8.61801013	     27.98876234	     27.98876234	     21.59118117	    -17.59681269	      8.06962200	    -12.38963644	      9.28213976	      1.61127219	     -4.25029430	    -11.75551582	    -19.22038897	     22.32955305	     46.42263451	      0.00000000	      0.00000000	     30.77106933	    -19.98131261	      5.26024456	     51.53464284	     46.76253782	      0.00000000	      0.00000000
     38.61714286	     -2.75775328	     -5.06891484	     -7.65981417	      0.92062815	      0.92400194	      0.41526663	     28.16691801	     -2.80918014	     -5.89981804	     44.01479671	     44.01479671	      6.89382357	    -17.05218208	      5.44876141	     10.68770568	     -2.50345917	     -9.39833044	     26.87187701	     26.87187701	     21.43107746	    -17.20767593	      8.15586466	    -12.32214921	      9.44322621	      1.41898742	     -5.97332230	    -11.69883727	    -19.31533594	     21.98534056	     46.44030119	      0.00000000	      0.00000000	     32.10998990	    -20.68841920	      4.77722214	     52.50716724	     46.82854761	      0.00000000	      0.00000000
     38.63607143	     -3.10255350	     -5.08248402	     -8.30937910	      0.91930357	      0.92511650	      0.41664953	     27.83176406	     -2.30231772	     -6.12181699	     39.14267273	     39.14267273	      4.49501282	    -15.70164489	     -0.62373572	     10.01179958	     -2.62880893	    -10.25457800	     25.61405855	     25.61405855	     20.78391107	    -16.85113948	      6.85153118	    -12.29297292	      9.54009446	      1.23986217	     -8.28712233	    -11.49129702	    -19.80363542	     23.78155880	     46.44418222	      0.00000000	      0.00000000	     32.86112498	    -21.23308637	      3.10348406	     54.94263341	     47.02751751	      0.00000000	      0.00000000
